<?xml version="1.0" encoding="utf-8"?>
<!-- Generated by IcoMoon.io -->
<!DOCTYPE svg PUBLIC "-//W3C//DTD SVG 1.1//EN" "http://www.w3.org/Graphics/SVG/1.1/DTD/svg11.dtd">
<svg version="1.1" xmlns="http://www.w3.org/2000/svg" xmlns:xlink="http://www.w3.org/1999/xlink" width="64" height="64" viewBox="0 0 64 64">
<g>
</g>
	<path d="M0 54.857v-45.714q0-1.893 1.339-3.232t3.232-1.339h54.857q1.893 0 3.232 1.339t1.339 3.232v45.714q0 1.893-1.339 3.232t-3.232 1.339h-54.857q-1.893 0-3.232-1.339t-1.339-3.232zM4.571 54.857h54.857v-4.571h-54.857v4.571zM4.571 18.286h54.857v-9.143h-29.571l-2.286 4.571h-23v4.571zM9.143 11.429h13.714v-4.571h-13.714v4.571zM18.286 34.357q0 5.679 4.018 9.696t9.696 4.018 9.696-4.018 4.018-9.696-4.018-9.696-9.696-4.018-9.696 4.018-4.018 9.696zM22.857 34.357q0-3.786 2.679-6.464t6.464-2.679 6.464 2.679 2.679 6.464-2.679 6.464-6.464 2.679-6.464-2.679-2.679-6.464zM26.286 34.286q0 0.5 0.321 0.821t0.821 0.321 0.821-0.321 0.321-0.821q0-1.429 1-2.429t2.429-1q0.5 0 0.821-0.321t0.321-0.821-0.321-0.821-0.821-0.321q-2.357 0-4.036 1.679t-1.679 4.036z" fill="#ffffff"></path>
</svg>
