<?xml version="1.0" encoding="UTF-8" standalone="no"?>
<!-- Generated by IcoMoon.io -->

<svg
   xmlns:dc="http://purl.org/dc/elements/1.1/"
   xmlns:cc="http://creativecommons.org/ns#"
   xmlns:rdf="http://www.w3.org/1999/02/22-rdf-syntax-ns#"
   xmlns:svg="http://www.w3.org/2000/svg"
   xmlns="http://www.w3.org/2000/svg"
   xmlns:sodipodi="http://sodipodi.sourceforge.net/DTD/sodipodi-0.dtd"
   xmlns:inkscape="http://www.inkscape.org/namespaces/inkscape"
   version="1.1"
   width="59"
   height="64"
   viewBox="0 0 59 64"
   id="svg2"
   inkscape:version="0.48.4 r9939"
   sodipodi:docname="chain.svg">
  <metadata
     id="metadata12">
    <rdf:RDF>
      <cc:Work
         rdf:about="">
        <dc:format>image/svg+xml</dc:format>
        <dc:type
           rdf:resource="http://purl.org/dc/dcmitype/StillImage" />
      </cc:Work>
    </rdf:RDF>
  </metadata>
  <defs
     id="defs10" />
  <sodipodi:namedview
     pagecolor="#ffffff"
     bordercolor="#666666"
     borderopacity="1"
     objecttolerance="10"
     gridtolerance="10"
     guidetolerance="10"
     inkscape:pageopacity="0"
     inkscape:pageshadow="2"
     inkscape:window-width="1598"
     inkscape:window-height="850"
     id="namedview8"
     showgrid="false"
     inkscape:zoom="6.619731"
     inkscape:cx="14.341349"
     inkscape:cy="32"
     inkscape:window-x="0"
     inkscape:window-y="25"
     inkscape:window-maximized="1"
     inkscape:current-layer="svg2" />
  <g
     id="g4"
     style="fill:#782167;fill-opacity:1" />
  <path
     d="m 0.3565,18.285 q 0,-4.286 3.036,-7.25 l 5.25,-5.214 q 2.964,-2.964 7.25,-2.964 4.321,0 7.286,3.036 l 7.357,7.393 q 2.964,2.964 2.964,7.25 0,4.393 -3.143,7.464 l 3.143,3.143 Q 36.5705,28 40.9285,28 q 4.286,0 7.286,3 l 7.429,7.429 q 3,3 3,7.286 0,4.286 -3.036,7.25 l -5.25,5.214 q -2.964,2.964 -7.25,2.964 -4.321,0 -7.286,-3.036 l -7.357,-7.393 q -2.964,-2.964 -2.964,-7.25 0,-4.393 3.143,-7.464 l -3.143,-3.143 Q 22.4295,36 18.0715,36 q -4.286,0 -7.286,-3 l -7.429,-7.429 q -3,-3 -3,-7.286 z m 6.858,0 q 0,1.429 1,2.429 l 7.429,7.429 q 0.964,0.964 2.429,0.964 1.5,0 2.571,-1.107 -0.107,-0.107 -0.679,-0.661 -0.572,-0.554 -0.768,-0.768 -0.196,-0.214 -0.536,-0.679 -0.34,-0.465 -0.464,-0.911 -0.124,-0.446 -0.125,-0.982 0,-1.429 1,-2.429 1,-1 2.429,-1 0.536,0 0.982,0.125 0.446,0.125 0.911,0.464 0.465,0.339 0.679,0.536 0.214,0.197 0.768,0.768 0.554,0.571 0.661,0.679 1.179,-1.107 1.179,-2.607 0,-1.429 -1,-2.429 l -7.357,-7.393 q -1,-1 -2.429,-1 -1.393,0 -2.429,0.964 l -5.25,5.214 q -1,1 -1,2.393 z m 25.107,25.179 q 0,1.429 1,2.429 l 7.357,7.393 q 0.964,0.964 2.429,0.964 1.429,0 2.429,-0.929 l 5.25,-5.214 q 1,-1 1,-2.393 0,-1.429 -1,-2.429 l -7.429,-7.429 q -1,-1 -2.429,-1 -1.5,0 -2.571,1.143 0.107,0.107 0.679,0.661 0.572,0.554 0.768,0.768 0.196,0.214 0.536,0.679 0.34,0.465 0.464,0.911 0.124,0.446 0.125,0.982 0,1.429 -1,2.429 -1,1 -2.429,1 -0.536,0 -0.982,-0.125 -0.446,-0.125 -0.911,-0.464 -0.465,-0.339 -0.679,-0.536 -0.214,-0.197 -0.768,-0.768 -0.554,-0.571 -0.661,-0.679 -1.179,1.107 -1.179,2.607 z"
     id="path6"
     style="fill:#008033;fill-opacity:1"
     inkscape:connector-curvature="0" />
</svg>
