<?xml version="1.0" encoding="utf-8"?>
<!-- Generated by IcoMoon.io -->
<!DOCTYPE svg PUBLIC "-//W3C//DTD SVG 1.1//EN" "http://www.w3.org/Graphics/SVG/1.1/DTD/svg11.dtd">
<svg version="1.1" xmlns="http://www.w3.org/2000/svg" xmlns:xlink="http://www.w3.org/1999/xlink" width="59" height="64" viewBox="0 0 59 64">
<g>
</g>
	<path d="M52 43.429q0-1.429-1-2.429l-7.429-7.429q-1-1-2.429-1-1.5 0-2.571 1.143 0.107 0.107 0.679 0.661t0.768 0.768 0.536 0.679 0.464 0.911 0.125 0.982q0 1.429-1 2.429t-2.429 1q-0.536 0-0.982-0.125t-0.911-0.464-0.679-0.536-0.768-0.768-0.661-0.679q-1.179 1.107-1.179 2.607 0 1.429 1 2.429l7.357 7.393q0.964 0.964 2.429 0.964 1.429 0 2.429-0.929l5.25-5.214q1-1 1-2.393zM26.893 18.25q0-1.429-1-2.429l-7.357-7.393q-1-1-2.429-1-1.393 0-2.429 0.964l-5.25 5.214q-1 1-1 2.393 0 1.429 1 2.429l7.429 7.429q0.964 0.964 2.429 0.964 1.5 0 2.571-1.107-0.107-0.107-0.679-0.661t-0.768-0.768-0.536-0.679-0.464-0.911-0.125-0.982q0-1.429 1-2.429t2.429-1q0.536 0 0.982 0.125t0.911 0.464 0.679 0.536 0.768 0.768 0.661 0.679q1.179-1.107 1.179-2.607zM58.857 43.429q0 4.286-3.036 7.25l-5.25 5.214q-2.964 2.964-7.25 2.964-4.321 0-7.286-3.036l-7.357-7.393q-2.964-2.964-2.964-7.25 0-4.393 3.143-7.464l-3.143-3.143q-3.071 3.143-7.429 3.143-4.286 0-7.286-3l-7.429-7.429q-3-3-3-7.286t3.036-7.25l5.25-5.214q2.964-2.964 7.25-2.964 4.321 0 7.286 3.036l7.357 7.393q2.964 2.964 2.964 7.25 0 4.393-3.143 7.464l3.143 3.143q3.071-3.143 7.429-3.143 4.286 0 7.286 3l7.429 7.429q3 3 3 7.286z" fill="#ffffff"></path>
</svg>
