<?xml version="1.0" encoding="utf-8"?>
<!-- Generated by IcoMoon.io -->
<!DOCTYPE svg PUBLIC "-//W3C//DTD SVG 1.1//EN" "http://www.w3.org/Graphics/SVG/1.1/DTD/svg11.dtd">
<svg version="1.1" xmlns="http://www.w3.org/2000/svg" xmlns:xlink="http://www.w3.org/1999/xlink" width="64" height="64" viewBox="0 0 64 64">
<g>
</g>
	<path d="M0.464 53.714q0-0.464 0.357-0.821l11.857-11.857-5.143-5.143q-0.679-0.679-0.679-1.607t0.679-1.607 1.607-0.679h16q0.929 0 1.607 0.679t0.679 1.607v16q0 0.929-0.679 1.607t-1.607 0.679-1.607-0.679l-5.143-5.143-11.857 11.857q-0.357 0.357-0.821 0.357t-0.821-0.357l-4.071-4.071q-0.357-0.357-0.357-0.821zM27.429 29.714v-16q0-0.929 0.679-1.607t1.607-0.679 1.607 0.679l5.143 5.143 11.857-11.857q0.357-0.357 0.821-0.357t0.821 0.357l4.071 4.071q0.357 0.357 0.357 0.821t-0.357 0.821l-11.857 11.857 5.143 5.143q0.679 0.679 0.679 1.607t-0.679 1.607-1.607 0.679h-16q-0.929 0-1.607-0.679t-0.679-1.607z" fill="#ffffff"></path>
</svg>
