<?xml version="1.0" encoding="UTF-8" standalone="no"?>
<!-- Generated by IcoMoon.io -->

<svg
   xmlns:dc="http://purl.org/dc/elements/1.1/"
   xmlns:cc="http://creativecommons.org/ns#"
   xmlns:rdf="http://www.w3.org/1999/02/22-rdf-syntax-ns#"
   xmlns:svg="http://www.w3.org/2000/svg"
   xmlns="http://www.w3.org/2000/svg"
   xmlns:sodipodi="http://sodipodi.sourceforge.net/DTD/sodipodi-0.dtd"
   xmlns:inkscape="http://www.inkscape.org/namespaces/inkscape"
   version="1.1"
   viewBox="0 0 69 64"
   id="svg2"
   inkscape:version="0.48.4 r9939"
   sodipodi:docname="film.svg">
  <metadata
     id="metadata12">
    <rdf:RDF>
      <cc:Work
         rdf:about="">
        <dc:format>image/svg+xml</dc:format>
        <dc:type
           rdf:resource="http://purl.org/dc/dcmitype/StillImage" />
      </cc:Work>
    </rdf:RDF>
  </metadata>
  <defs
     id="defs10" />
  <sodipodi:namedview
     pagecolor="#ffffff"
     bordercolor="#666666"
     borderopacity="1"
     objecttolerance="10"
     gridtolerance="10"
     guidetolerance="10"
     inkscape:pageopacity="0"
     inkscape:pageshadow="2"
     inkscape:window-width="1598"
     inkscape:window-height="850"
     id="namedview8"
     showgrid="false"
     inkscape:zoom="9.8813477"
     inkscape:cx="17.194668"
     inkscape:cy="32"
     inkscape:window-x="0"
     inkscape:window-y="25"
     inkscape:window-maximized="1"
     inkscape:current-layer="svg2" />
  <g
     id="g4"
     style="fill:#d40000;fill-opacity:1" />
  <path
     d="M0 58.286v-48q0-2.357 1.679-4.036t4.036-1.679h57.143q2.357 0 4.036 1.679t1.679 4.036v48q0 2.357-1.679 4.036t-4.036 1.679h-57.143q-2.357 0-4.036-1.679t-1.679-4.036zM4.571 52.571v4.571q0 0.929 0.679 1.607t1.607 0.679h4.571q0.929 0 1.607-0.679t0.679-1.607v-4.571q0-0.929-0.679-1.607t-1.607-0.679h-4.571q-0.929 0-1.607 0.679t-0.679 1.607zM4.571 43.429q0 0.929 0.679 1.607t1.607 0.679h4.571q0.929 0 1.607-0.679t0.679-1.607v-4.571q0-0.929-0.679-1.607t-1.607-0.679h-4.571q-0.929 0-1.607 0.679t-0.679 1.607v4.571zM4.571 29.714q0 0.929 0.679 1.607t1.607 0.679h4.571q0.929 0 1.607-0.679t0.679-1.607v-4.571q0-0.929-0.679-1.607t-1.607-0.679h-4.571q-0.929 0-1.607 0.679t-0.679 1.607v4.571zM4.571 16q0 0.929 0.679 1.607t1.607 0.679h4.571q0.929 0 1.607-0.679t0.679-1.607v-4.571q0-0.929-0.679-1.607t-1.607-0.679h-4.571q-0.929 0-1.607 0.679t-0.679 1.607v4.571zM18.286 57.143q0 0.929 0.679 1.607t1.607 0.679h27.429q0.929 0 1.607-0.679t0.679-1.607v-18.286q0-0.929-0.679-1.607t-1.607-0.679h-27.429q-0.929 0-1.607 0.679t-0.679 1.607v18.286zM18.286 29.714q0 0.929 0.679 1.607t1.607 0.679h27.429q0.929 0 1.607-0.679t0.679-1.607v-18.286q0-0.929-0.679-1.607t-1.607-0.679h-27.429q-0.929 0-1.607 0.679t-0.679 1.607v18.286zM54.857 52.571v4.571q0 0.929 0.679 1.607t1.607 0.679h4.571q0.929 0 1.607-0.679t0.679-1.607v-4.571q0-0.929-0.679-1.607t-1.607-0.679h-4.571q-0.929 0-1.607 0.679t-0.679 1.607zM54.857 43.429q0 0.929 0.679 1.607t1.607 0.679h4.571q0.929 0 1.607-0.679t0.679-1.607v-4.571q0-0.929-0.679-1.607t-1.607-0.679h-4.571q-0.929 0-1.607 0.679t-0.679 1.607v4.571zM54.857 29.714q0 0.929 0.679 1.607t1.607 0.679h4.571q0.929 0 1.607-0.679t0.679-1.607v-4.571q0-0.929-0.679-1.607t-1.607-0.679h-4.571q-0.929 0-1.607 0.679t-0.679 1.607v4.571zM54.857 16q0 0.929 0.679 1.607t1.607 0.679h4.571q0.929 0 1.607-0.679t0.679-1.607v-4.571q0-0.929-0.679-1.607t-1.607-0.679h-4.571q-0.929 0-1.607 0.679t-0.679 1.607v4.571z"
     fill="#ffffff"
     id="path6"
     style="fill:#d40000;fill-opacity:1" />
</svg>
