<?xml version="1.0" encoding="utf-8"?>
<!-- Generated by IcoMoon.io -->
<!DOCTYPE svg PUBLIC "-//W3C//DTD SVG 1.1//EN" "http://www.w3.org/Graphics/SVG/1.1/DTD/svg11.dtd">
<svg version="1.1" xmlns="http://www.w3.org/2000/svg" xmlns:xlink="http://www.w3.org/1999/xlink" width="69" height="64" viewBox="0 0 69 64">
<g>
</g>
	<path d="M13.714 57.143v-4.571q0-0.929-0.679-1.607t-1.607-0.679h-4.571q-0.929 0-1.607 0.679t-0.679 1.607v4.571q0 0.929 0.679 1.607t1.607 0.679h4.571q0.929 0 1.607-0.679t0.679-1.607zM13.714 43.429v-4.571q0-0.929-0.679-1.607t-1.607-0.679h-4.571q-0.929 0-1.607 0.679t-0.679 1.607v4.571q0 0.929 0.679 1.607t1.607 0.679h4.571q0.929 0 1.607-0.679t0.679-1.607zM13.714 29.714v-4.571q0-0.929-0.679-1.607t-1.607-0.679h-4.571q-0.929 0-1.607 0.679t-0.679 1.607v4.571q0 0.929 0.679 1.607t1.607 0.679h4.571q0.929 0 1.607-0.679t0.679-1.607zM50.286 57.143v-18.286q0-0.929-0.679-1.607t-1.607-0.679h-27.429q-0.929 0-1.607 0.679t-0.679 1.607v18.286q0 0.929 0.679 1.607t1.607 0.679h27.429q0.929 0 1.607-0.679t0.679-1.607zM13.714 16v-4.571q0-0.929-0.679-1.607t-1.607-0.679h-4.571q-0.929 0-1.607 0.679t-0.679 1.607v4.571q0 0.929 0.679 1.607t1.607 0.679h4.571q0.929 0 1.607-0.679t0.679-1.607zM64 57.143v-4.571q0-0.929-0.679-1.607t-1.607-0.679h-4.571q-0.929 0-1.607 0.679t-0.679 1.607v4.571q0 0.929 0.679 1.607t1.607 0.679h4.571q0.929 0 1.607-0.679t0.679-1.607zM50.286 29.714v-18.286q0-0.929-0.679-1.607t-1.607-0.679h-27.429q-0.929 0-1.607 0.679t-0.679 1.607v18.286q0 0.929 0.679 1.607t1.607 0.679h27.429q0.929 0 1.607-0.679t0.679-1.607zM64 43.429v-4.571q0-0.929-0.679-1.607t-1.607-0.679h-4.571q-0.929 0-1.607 0.679t-0.679 1.607v4.571q0 0.929 0.679 1.607t1.607 0.679h4.571q0.929 0 1.607-0.679t0.679-1.607zM64 29.714v-4.571q0-0.929-0.679-1.607t-1.607-0.679h-4.571q-0.929 0-1.607 0.679t-0.679 1.607v4.571q0 0.929 0.679 1.607t1.607 0.679h4.571q0.929 0 1.607-0.679t0.679-1.607zM64 16v-4.571q0-0.929-0.679-1.607t-1.607-0.679h-4.571q-0.929 0-1.607 0.679t-0.679 1.607v4.571q0 0.929 0.679 1.607t1.607 0.679h4.571q0.929 0 1.607-0.679t0.679-1.607zM68.571 10.286v48q0 2.357-1.679 4.036t-4.036 1.679h-57.143q-2.357 0-4.036-1.679t-1.679-4.036v-48q0-2.357 1.679-4.036t4.036-1.679h57.143q2.357 0 4.036 1.679t1.679 4.036z" fill="#ffffff"></path>
</svg>
