<?xml version="1.0" encoding="utf-8"?>
<!-- Generated by IcoMoon.io -->
<!DOCTYPE svg PUBLIC "-//W3C//DTD SVG 1.1//EN" "http://www.w3.org/Graphics/SVG/1.1/DTD/svg11.dtd">
<svg version="1.1" xmlns="http://www.w3.org/2000/svg" xmlns:xlink="http://www.w3.org/1999/xlink" width="69" height="64" viewBox="0 0 69 64">
<g>
</g>
	<path d="M0 58.286v-48q0-2.357 1.679-4.036t4.036-1.679h57.143q2.357 0 4.036 1.679t1.679 4.036v48q0 2.357-1.679 4.036t-4.036 1.679h-57.143q-2.357 0-4.036-1.679t-1.679-4.036zM4.571 52.571v4.571q0 0.929 0.679 1.607t1.607 0.679h4.571q0.929 0 1.607-0.679t0.679-1.607v-4.571q0-0.929-0.679-1.607t-1.607-0.679h-4.571q-0.929 0-1.607 0.679t-0.679 1.607zM4.571 43.429q0 0.929 0.679 1.607t1.607 0.679h4.571q0.929 0 1.607-0.679t0.679-1.607v-4.571q0-0.929-0.679-1.607t-1.607-0.679h-4.571q-0.929 0-1.607 0.679t-0.679 1.607v4.571zM4.571 29.714q0 0.929 0.679 1.607t1.607 0.679h4.571q0.929 0 1.607-0.679t0.679-1.607v-4.571q0-0.929-0.679-1.607t-1.607-0.679h-4.571q-0.929 0-1.607 0.679t-0.679 1.607v4.571zM4.571 16q0 0.929 0.679 1.607t1.607 0.679h4.571q0.929 0 1.607-0.679t0.679-1.607v-4.571q0-0.929-0.679-1.607t-1.607-0.679h-4.571q-0.929 0-1.607 0.679t-0.679 1.607v4.571zM18.286 57.143q0 0.929 0.679 1.607t1.607 0.679h27.429q0.929 0 1.607-0.679t0.679-1.607v-18.286q0-0.929-0.679-1.607t-1.607-0.679h-27.429q-0.929 0-1.607 0.679t-0.679 1.607v18.286zM18.286 29.714q0 0.929 0.679 1.607t1.607 0.679h27.429q0.929 0 1.607-0.679t0.679-1.607v-18.286q0-0.929-0.679-1.607t-1.607-0.679h-27.429q-0.929 0-1.607 0.679t-0.679 1.607v18.286zM54.857 52.571v4.571q0 0.929 0.679 1.607t1.607 0.679h4.571q0.929 0 1.607-0.679t0.679-1.607v-4.571q0-0.929-0.679-1.607t-1.607-0.679h-4.571q-0.929 0-1.607 0.679t-0.679 1.607zM54.857 43.429q0 0.929 0.679 1.607t1.607 0.679h4.571q0.929 0 1.607-0.679t0.679-1.607v-4.571q0-0.929-0.679-1.607t-1.607-0.679h-4.571q-0.929 0-1.607 0.679t-0.679 1.607v4.571zM54.857 29.714q0 0.929 0.679 1.607t1.607 0.679h4.571q0.929 0 1.607-0.679t0.679-1.607v-4.571q0-0.929-0.679-1.607t-1.607-0.679h-4.571q-0.929 0-1.607 0.679t-0.679 1.607v4.571zM54.857 16q0 0.929 0.679 1.607t1.607 0.679h4.571q0.929 0 1.607-0.679t0.679-1.607v-4.571q0-0.929-0.679-1.607t-1.607-0.679h-4.571q-0.929 0-1.607 0.679t-0.679 1.607v4.571z" fill="#ffffff"></path>
</svg>
