<?xml version="1.0" encoding="utf-8"?>
<!-- Generated by IcoMoon.io -->
<!DOCTYPE svg PUBLIC "-//W3C//DTD SVG 1.1//EN" "http://www.w3.org/Graphics/SVG/1.1/DTD/svg11.dtd">
<svg version="1.1" xmlns="http://www.w3.org/2000/svg" xmlns:xlink="http://www.w3.org/1999/xlink" width="23" height="64" viewBox="0 0 23 64">
<g>
</g>
	<path d="M22.857 48v4.571q0 0.929-0.679 1.607t-1.607 0.679h-18.286q-0.929 0-1.607-0.679t-0.679-1.607v-4.571q0-0.929 0.679-1.607t1.607-0.679h2.286v-13.714h-2.286q-0.929 0-1.607-0.679t-0.679-1.607v-4.571q0-0.929 0.679-1.607t1.607-0.679h13.714q0.929 0 1.607 0.679t0.679 1.607v20.571h2.286q0.929 0 1.607 0.679t0.679 1.607zM18.286 6.857v6.857q0 0.929-0.679 1.607t-1.607 0.679h-9.143q-0.929 0-1.607-0.679t-0.679-1.607v-6.857q0-0.929 0.679-1.607t1.607-0.679h9.143q0.929 0 1.607 0.679t0.679 1.607z" fill="#ffffff"></path>
</svg>
