<?xml version="1.0" encoding="UTF-8" standalone="no"?>
<!-- Created with Inkscape (http://www.inkscape.org/) -->

<svg
   xmlns:dc="http://purl.org/dc/elements/1.1/"
   xmlns:cc="http://creativecommons.org/ns#"
   xmlns:rdf="http://www.w3.org/1999/02/22-rdf-syntax-ns#"
   xmlns:svg="http://www.w3.org/2000/svg"
   xmlns="http://www.w3.org/2000/svg"
   xmlns:sodipodi="http://sodipodi.sourceforge.net/DTD/sodipodi-0.dtd"
   xmlns:inkscape="http://www.inkscape.org/namespaces/inkscape"
   id="svg3004"
   version="1.1"
   inkscape:version="0.48.4 r9939"
   width="112.5"
   height="150"
   xml:space="preserve"
   sodipodi:docname="mapicon_image.eps"><metadata
     id="metadata3010"><rdf:RDF><cc:Work
         rdf:about=""><dc:format>image/svg+xml</dc:format><dc:type
           rdf:resource="http://purl.org/dc/dcmitype/StillImage" /><dc:title></dc:title></cc:Work></rdf:RDF></metadata><defs
     id="defs3008" /><sodipodi:namedview
     pagecolor="#ffffff"
     bordercolor="#666666"
     borderopacity="1"
     objecttolerance="10"
     gridtolerance="10"
     guidetolerance="10"
     inkscape:pageopacity="0"
     inkscape:pageshadow="2"
     inkscape:window-width="1598"
     inkscape:window-height="850"
     id="namedview3006"
     showgrid="false"
     inkscape:zoom="3.1395541"
     inkscape:cx="77.494568"
     inkscape:cy="73.456146"
     inkscape:window-x="0"
     inkscape:window-y="25"
     inkscape:window-maximized="1"
     inkscape:current-layer="g3012" /><g
     id="g3012"
     inkscape:groupmode="layer"
     inkscape:label="ink_ext_XXXXXX"
     transform="matrix(1.25,0,0,-1.25,0,150)"><g
       id="g3014"
       transform="scale(0.1,0.1)"><path
         d="M 0,1200 0,396.973 449.996,0 900,396.973 900,1200 0,1200"
         style="fill:#100f0d;fill-opacity:1;fill-rule:nonzero;stroke:none"
         id="path3016" /><path
         d="m 792.859,1017.14 0,-434.281 c 0,-15.718 -5.586,-29.175 -16.773,-40.371 -11.203,-11.187 -24.648,-16.773 -40.371,-16.773 l -571.43,0 c -15.711,0 -29.168,5.586 -40.359,16.773 -11.192,11.196 -16.785,24.653 -16.785,40.371 l 0,434.281 c 0,15.72 5.593,29.18 16.785,40.37 11.191,11.19 24.648,16.78 40.359,16.78 l 571.43,0 c 15.723,0 29.168,-5.59 40.371,-16.78 11.187,-11.19 16.773,-24.65 16.773,-40.37 z m -57.129,11.45 -571.433,0 c -3.086,0 -5.774,-1.14 -8.035,-3.4 -2.278,-2.27 -3.403,-4.95 -3.391,-8.05 l 0,-434.281 c 0,-3.101 1.133,-5.781 3.391,-8.046 2.254,-2.262 4.929,-3.395 8.035,-3.395 l 571.433,0 c 3.086,0 5.774,1.133 8.04,3.395 2.265,2.265 3.386,4.945 3.386,8.046 l 0,434.281 c 0,3.1 -1.133,5.78 -3.386,8.05 -2.254,2.26 -4.942,3.4 -8.04,3.4 z m -34.277,-251.449 0,-160 -502.859,0 0,68.574 114.277,114.297 57.149,-57.153 182.863,182.871 148.57,-148.589 z m -365.73,137.144 c 0,-19.043 -6.66,-35.23 -20,-48.555 -13.328,-13.335 -29.512,-20 -48.567,-20 -19.051,0 -35.23,6.665 -48.562,20 -13.34,13.325 -20,29.512 -20,48.555 0,19.067 6.66,35.254 20,48.574 13.332,13.34 29.511,20 48.562,20 19.055,0 35.239,-6.66 48.567,-20 13.34,-13.32 20,-29.507 20,-48.574"
         style="fill:#ffffff;fill-opacity:1;fill-rule:nonzero;stroke:none"
         id="path3018" /></g></g></svg>