<?xml version="1.0" encoding="UTF-8" standalone="no"?>
<!-- Created with Inkscape (http://www.inkscape.org/) -->

<svg
   xmlns:dc="http://purl.org/dc/elements/1.1/"
   xmlns:cc="http://creativecommons.org/ns#"
   xmlns:rdf="http://www.w3.org/1999/02/22-rdf-syntax-ns#"
   xmlns:svg="http://www.w3.org/2000/svg"
   xmlns="http://www.w3.org/2000/svg"
   xmlns:sodipodi="http://sodipodi.sourceforge.net/DTD/sodipodi-0.dtd"
   xmlns:inkscape="http://www.inkscape.org/namespaces/inkscape"
   id="svg3020"
   version="1.1"
   inkscape:version="0.48.4 r9939"
   width="112.5"
   height="150"
   xml:space="preserve"
   sodipodi:docname="mapicon_link.eps"><metadata
     id="metadata3026"><rdf:RDF><cc:Work
         rdf:about=""><dc:format>image/svg+xml</dc:format><dc:type
           rdf:resource="http://purl.org/dc/dcmitype/StillImage" /><dc:title></dc:title></cc:Work></rdf:RDF></metadata><defs
     id="defs3024" /><sodipodi:namedview
     pagecolor="#ffffff"
     bordercolor="#666666"
     borderopacity="1"
     objecttolerance="10"
     gridtolerance="10"
     guidetolerance="10"
     inkscape:pageopacity="0"
     inkscape:pageshadow="2"
     inkscape:window-width="1598"
     inkscape:window-height="850"
     id="namedview3022"
     showgrid="false"
     inkscape:zoom="4.2160417"
     inkscape:cx="56.25"
     inkscape:cy="75"
     inkscape:window-x="0"
     inkscape:window-y="25"
     inkscape:window-maximized="1"
     inkscape:current-layer="g3028" /><g
     id="g3028"
     inkscape:groupmode="layer"
     inkscape:label="ink_ext_XXXXXX"
     transform="matrix(1.25,0,0,-1.25,0,150)"><g
       id="g3030"
       transform="scale(0.1,0.1)"><path
         d="M 0,1200 0,396.973 449.996,0 900,396.973 900,1200 0,1200"
         style="fill:#100f0d;fill-opacity:1;fill-rule:nonzero;stroke:none"
         id="path3032" /><path
         d="m 741.438,662.859 c 0,-28.574 -10.122,-52.754 -30.364,-72.5 l -52.5,-52.144 c -19.758,-19.77 -43.926,-29.652 -72.5,-29.652 -28.801,0 -53.094,10.136 -72.859,30.375 l -73.567,73.921 c -19.761,19.77 -29.644,43.926 -29.644,72.5 0,29.297 10.48,54.161 31.434,74.653 l -31.434,31.426 c -20.473,-20.958 -45.234,-31.426 -74.285,-31.426 -28.574,0 -52.864,10 -72.864,30 l -74.292,74.273 c -20,20 -30,44.301 -30,72.871 0,28.574 10.125,52.739 30.363,72.504 l 52.5,52.13 c 19.762,19.76 43.926,29.65 72.5,29.65 28.808,0 53.094,-10.12 72.859,-30.38 l 73.57,-73.919 c 19.762,-19.746 29.633,-43.926 29.633,-72.5 0,-29.282 -10.468,-54.161 -31.425,-74.629 l 31.425,-31.449 c 20.481,20.957 45.246,31.449 74.297,31.449 28.574,0 52.863,-10 72.863,-30 l 74.29,-74.297 c 20,-20 30,-44.277 30,-72.856 z M 421.797,914.641 c 0,9.531 -3.336,17.632 -10,24.297 l -73.57,73.922 c -6.668,6.66 -14.766,10 -24.289,10 -9.29,0 -17.383,-3.2 -24.29,-9.63 l -52.5,-52.144 c -6.668,-6.66 -10,-14.648 -10,-23.93 0,-9.527 3.332,-17.636 10,-24.297 l 74.29,-74.296 c 6.421,-6.422 14.523,-9.625 24.289,-9.625 10,0 18.57,3.691 25.711,11.074 -0.715,0.703 -2.977,2.91 -6.79,6.597 -3.812,3.696 -6.378,6.25 -7.679,7.676 -1.309,1.43 -3.098,3.695 -5.364,6.801 -2.265,3.102 -3.812,6.133 -4.636,9.102 -0.832,2.988 -1.246,6.25 -1.25,9.824 0,9.527 3.328,17.633 10,24.297 6.664,6.66 14.761,10 24.285,10 3.574,0 6.848,-0.414 9.82,-1.25 2.973,-0.84 6.012,-2.383 9.114,-4.653 3.097,-2.246 5.363,-4.043 6.789,-5.347 1.425,-1.313 3.984,-3.871 7.679,-7.676 3.696,-3.813 5.895,-6.074 6.61,-6.797 7.859,7.383 11.793,16.07 11.793,26.07 l -0.012,-0.015 z M 672.859,662.859 c 0,9.512 -3.328,17.621 -10,24.282 l -74.285,74.297 c -6.672,6.66 -14.758,10 -24.289,10 -10,0 -18.57,-3.809 -25.711,-11.426 0.711,-0.727 2.981,-2.934 6.785,-6.621 3.821,-3.696 6.379,-6.25 7.688,-7.676 1.301,-1.43 3.098,-3.695 5.359,-6.797 2.27,-3.09 3.813,-6.137 4.641,-9.105 0.832,-2.965 1.238,-6.25 1.25,-9.825 0,-9.527 -3.328,-17.617 -10,-24.273 -6.668,-6.684 -14.766,-10 -24.285,-10 -3.574,0 -6.86,0.406 -9.824,1.25 -2.969,0.816 -6.016,2.359 -9.114,4.629 -3.094,2.261 -5.359,4.043 -6.789,5.371 -1.426,1.305 -3.98,3.863 -7.676,7.676 -3.687,3.804 -5.894,6.074 -6.621,6.777 -7.847,-7.363 -11.773,-16.059 -11.773,-26.059 0,-9.531 3.316,-17.632 10,-24.296 l 73.562,-73.922 c 6.426,-6.426 14.524,-9.653 24.286,-9.653 9.535,0 17.628,3.11 24.296,9.297 l 52.5,52.133 c 6.661,6.68 10,14.645 10,23.941 l 0,0"
         style="fill:#ffffff;fill-opacity:1;fill-rule:nonzero;stroke:none"
         id="path3034" /></g></g></svg>