<?xml version="1.0" encoding="UTF-8" standalone="no"?>
<!-- Created with Inkscape (http://www.inkscape.org/) -->

<svg
   xmlns:dc="http://purl.org/dc/elements/1.1/"
   xmlns:cc="http://creativecommons.org/ns#"
   xmlns:rdf="http://www.w3.org/1999/02/22-rdf-syntax-ns#"
   xmlns:svg="http://www.w3.org/2000/svg"
   xmlns="http://www.w3.org/2000/svg"
   xmlns:sodipodi="http://sodipodi.sourceforge.net/DTD/sodipodi-0.dtd"
   xmlns:inkscape="http://www.inkscape.org/namespaces/inkscape"
   id="svg3052"
   version="1.1"
   inkscape:version="0.48.4 r9939"
   width="112.5"
   height="150"
   xml:space="preserve"
   sodipodi:docname="mapicon_video.svg"><metadata
     id="metadata3058"><rdf:RDF><cc:Work
         rdf:about=""><dc:format>image/svg+xml</dc:format><dc:type
           rdf:resource="http://purl.org/dc/dcmitype/StillImage" /><dc:title /></cc:Work></rdf:RDF></metadata><defs
     id="defs3056" /><sodipodi:namedview
     pagecolor="#ffffff"
     bordercolor="#666666"
     borderopacity="1"
     objecttolerance="10"
     gridtolerance="10"
     guidetolerance="10"
     inkscape:pageopacity="0"
     inkscape:pageshadow="2"
     inkscape:window-width="798"
     inkscape:window-height="850"
     id="namedview3054"
     showgrid="false"
     inkscape:zoom="1.6139535"
     inkscape:cx="59.430385"
     inkscape:cy="75"
     inkscape:window-x="800"
     inkscape:window-y="25"
     inkscape:window-maximized="0"
     inkscape:current-layer="g3060" /><g
     inkscape:groupmode="layer"
     id="layer2"
     inkscape:label="pin"><path
       inkscape:connector-curvature="0"
       id="path3064"
       style="fill:#d40000;fill-opacity:1;fill-rule:nonzero;stroke:none"
       d="M 0,0 0,100.37838 56.248495,150 112.5,100.37838 112.5,0 0,0" /></g><g
     id="g3060"
     inkscape:groupmode="layer"
     inkscape:label="ink_ext_XXXXXX"
     transform="matrix(1.25,0,0,-1.25,0,150)"
     style="opacity:1"><path
       inkscape:connector-curvature="0"
       id="path3066"
       style="fill:#ffffff;fill-opacity:1;fill-rule:nonzero;stroke:none"
       d="m 79.2859,104 0,-48 c 0,-1.5703 -0.5586,-2.916 -1.6773,-4.0352 -1.1191,-1.1191 -2.4648,-1.6796 -4.0371,-1.6796 l -57.143,0 c -1.5699,0 -2.9156,0.5605 -4.0347,1.6796 C 11.2742,53.084 10.7141,54.4297 10.7141,56 l 0,48 c 0,1.572 0.5601,2.918 1.6797,4.037 1.1191,1.119 2.4648,1.678 4.0347,1.678 l 57.143,0 c 1.5723,0 2.918,-0.559 4.0371,-1.678 1.1187,-1.119 1.6773,-2.465 1.6773,-4.037 z m -4.5703,-5.7129 0,4.5699 c 0,0.62 -0.2261,1.155 -0.6797,1.608 -0.4507,0.451 -0.9879,0.678 -1.605,0.68 l -4.5723,0 c -0.6191,0 -1.1543,-0.227 -1.6059,-0.68 -0.4531,-0.453 -0.6797,-0.988 -0.6797,-1.608 l 0,-4.5699 c 0,-0.6191 0.2266,-1.1562 0.6797,-1.6074 C 66.7043,96.2285 67.241,96.002 67.8586,96 l 4.5723,0 c 0.6187,0 1.1543,0.2266 1.605,0.6797 0.4536,0.4531 0.6797,0.9883 0.6797,1.6074 z m 0,-13.7148 0,4.5722 c 0,0.6192 -0.2261,1.1543 -0.6797,1.6055 -0.4507,0.4531 -0.9879,0.6797 -1.605,0.6797 l -4.5723,0 c -0.6191,0 -1.1543,-0.2266 -1.6059,-0.6797 -0.4531,-0.4512 -0.6797,-0.9883 -0.6797,-1.6055 l 0,-4.5722 c 0,-0.6192 0.2266,-1.1543 0.6797,-1.6075 0.4516,-0.4511 0.9883,-0.6777 1.6059,-0.6777 l 4.5723,0 c 0.6187,0 1.1543,0.2266 1.605,0.6777 0.4536,0.4532 0.6797,0.9883 0.6797,1.6075 z m 0,-13.7149 0,4.5703 c 0,0.6211 -0.2261,1.1563 -0.6797,1.6075 -0.4507,0.4531 -0.9879,0.6796 -1.605,0.6796 l -4.5723,0 c -0.6191,0 -1.1543,-0.2265 -1.6059,-0.6796 C 65.7996,76.582 65.573,76.0469 65.573,75.4277 l 0,-4.5703 c 0,-0.6191 0.2266,-1.1543 0.6797,-1.6074 0.4516,-0.4512 0.9883,-0.6777 1.6059,-0.6777 l 4.5723,0 c 0.6187,0 1.1543,0.2265 1.605,0.6777 0.4536,0.4531 0.6797,0.9883 0.6797,1.6074 z m -13.7129,13.7149 0,18.2867 c 0,0.62 -0.2261,1.155 -0.6797,1.606 -0.4531,0.453 -0.9878,0.68 -1.6074,0.68 l -27.4297,0 c -0.6187,0 -1.1543,-0.227 -1.605,-0.68 -0.4536,-0.451 -0.6797,-0.988 -0.6797,-1.606 l 0,-18.2867 c 0,-0.6192 0.2261,-1.1543 0.6797,-1.6075 0.4507,-0.4511 0.9879,-0.6777 1.605,-0.6777 l 27.4297,0 c 0.6196,0 1.1543,0.2266 1.6074,0.6777 0.4512,0.4532 0.6782,0.9883 0.6797,1.6075 z m 13.7129,-27.4278 0,4.5703 c 0,0.6192 -0.2261,1.1543 -0.6797,1.6075 C 73.5852,63.7734 73.048,64 72.4309,64 l -4.5723,0 C 67.2395,64 66.7043,63.7734 66.2527,63.3223 65.7996,62.8691 65.573,62.334 65.573,61.7148 l 0,-4.5703 c 0,-0.6211 0.2266,-1.1562 0.6797,-1.6074 0.4516,-0.4531 0.9883,-0.6797 1.6059,-0.6797 l 4.5723,0 c 0.6187,0 1.1543,0.2266 1.605,0.6797 0.4536,0.4531 0.6797,0.9883 0.6797,1.6074 z m -50.2847,41.1426 0,4.5699 c 0,0.62 -0.227,1.155 -0.6797,1.608 -0.4532,0.451 -0.9883,0.678 -1.6074,0.68 l -4.5708,0 c -0.6191,0 -1.1542,-0.227 -1.6074,-0.68 -0.4511,-0.453 -0.6773,-0.988 -0.6797,-1.608 l 0,-4.5699 c 0,-0.6191 0.227,-1.1562 0.6797,-1.6074 C 16.4188,96.2285 16.9539,96.002 17.573,96 l 4.5708,0 c 0.6191,0 1.1558,0.2266 1.6074,0.6797 0.4508,0.4531 0.6773,0.9883 0.6797,1.6074 z m 36.5718,-41.1426 0,18.2852 c 0,0.6191 -0.2261,1.1543 -0.6797,1.6074 -0.4531,0.4512 -0.9878,0.6777 -1.6074,0.6777 l -27.4297,0 c -0.6187,0 -1.1543,-0.2246 -1.605,-0.6777 -0.4536,-0.4531 -0.6797,-0.9883 -0.6797,-1.6074 l 0,-18.2852 c 0,-0.6211 0.2261,-1.1562 0.6797,-1.6074 0.4507,-0.4531 0.9879,-0.6797 1.605,-0.6797 l 27.4297,0 c 0.6196,0 1.1543,0.2266 1.6074,0.6797 0.4512,0.4531 0.6782,0.9883 0.6797,1.6074 z m -36.5718,27.4278 0,4.5722 c 0,0.6192 -0.227,1.1543 -0.6797,1.6055 -0.4532,0.4531 -0.9883,0.6797 -1.6074,0.6797 l -4.5708,0 c -0.6191,0 -1.1542,-0.2266 -1.6074,-0.6797 -0.4511,-0.4512 -0.6773,-0.9883 -0.6797,-1.6055 l 0,-4.5722 c 0,-0.6192 0.227,-1.1543 0.6797,-1.6075 0.4532,-0.4511 0.9883,-0.6777 1.6074,-0.6777 l 4.5708,0 c 0.6191,0 1.1558,0.2266 1.6074,0.6777 0.4508,0.4532 0.6773,0.9883 0.6797,1.6075 z m 0,-13.7149 0,4.5703 c 0,0.6211 -0.227,1.1563 -0.6797,1.6075 -0.4532,0.4531 -0.9883,0.6796 -1.6074,0.6796 l -4.5708,0 c -0.6191,0 -1.1542,-0.2265 -1.6074,-0.6796 -0.4511,-0.4532 -0.6773,-0.9883 -0.6797,-1.6075 l 0,-4.5703 c 0,-0.6191 0.227,-1.1543 0.6797,-1.6074 0.4532,-0.4512 0.9883,-0.6777 1.6074,-0.6777 l 4.5708,0 c 0.6191,0 1.1558,0.2265 1.6074,0.6777 0.4508,0.4531 0.6773,0.9883 0.6797,1.6074 z m 0,-13.7129 0,4.5703 c 0,0.6192 -0.227,1.1543 -0.6797,1.6075 C 23.298,63.7734 22.7629,64 22.1438,64 l -4.5708,0 c -0.6191,0 -1.1542,-0.2266 -1.6074,-0.6777 -0.4511,-0.4532 -0.6773,-0.9883 -0.6797,-1.6075 l 0,-4.5703 c 0,-0.6211 0.227,-1.1562 0.6797,-1.6074 0.4532,-0.4531 0.9883,-0.6797 1.6074,-0.6797 l 4.5708,0 c 0.6191,0 1.1558,0.2266 1.6074,0.6797 0.4508,0.4531 0.6773,0.9883 0.6797,1.6074" /><path
       style="fill:#241c1c;fill-opacity:1;fill-rule:nonzero;stroke:none;opacity:0.43438914"
       d="M 39.09375 18.5625 C 38.320375 18.5625 37.657125 18.84 37.09375 19.40625 C 36.52675 19.97 36.25 20.665 36.25 21.4375 L 36.25 44.28125 C 36.25 45.05525 36.52675 45.71475 37.09375 46.28125 C 37.657125 46.845125 38.322375 47.15625 39.09375 47.15625 L 73.40625 47.15625 C 74.18075 47.15625 74.839875 46.845125 75.40625 46.28125 C 75.97025 45.71475 76.248125 45.05525 76.25 44.28125 L 76.25 21.4375 C 76.25 20.6625 75.97325 19.97 75.40625 19.40625 C 74.839875 18.84 74.18075 18.5625 73.40625 18.5625 L 39.09375 18.5625 z M 39.09375 52.84375 C 38.320375 52.84375 37.657125 53.152375 37.09375 53.71875 C 36.52675 54.285125 36.25 54.944875 36.25 55.71875 L 36.25 78.5625 C 36.25 79.338875 36.52675 80.02975 37.09375 80.59375 C 37.657125 81.160125 38.322375 81.4375 39.09375 81.4375 L 73.40625 81.4375 C 74.18075 81.4375 74.839875 81.160125 75.40625 80.59375 C 75.97025 80.027375 76.248125 79.336375 76.25 78.5625 L 76.25 55.71875 C 76.25 54.944875 75.97325 54.285125 75.40625 53.71875 C 74.839875 53.15475 74.18075 52.84375 73.40625 52.84375 L 39.09375 52.84375 z "
       transform="matrix(0.8,0,0,-0.8,0,120)"
       id="path4411" /></g></svg>