<?xml version="1.0" encoding="UTF-8" standalone="no"?>
<!-- Created with Inkscape (http://www.inkscape.org/) -->

<svg
   xmlns:dc="http://purl.org/dc/elements/1.1/"
   xmlns:cc="http://creativecommons.org/ns#"
   xmlns:rdf="http://www.w3.org/1999/02/22-rdf-syntax-ns#"
   xmlns:svg="http://www.w3.org/2000/svg"
   xmlns="http://www.w3.org/2000/svg"
   xmlns:sodipodi="http://sodipodi.sourceforge.net/DTD/sodipodi-0.dtd"
   xmlns:inkscape="http://www.inkscape.org/namespaces/inkscape"
   id="svg3052"
   version="1.1"
   inkscape:version="0.48.4 r9939"
   width="112.5"
   height="150"
   xml:space="preserve"
   sodipodi:docname="mapicon_video.eps"><metadata
     id="metadata3058"><rdf:RDF><cc:Work
         rdf:about=""><dc:format>image/svg+xml</dc:format><dc:type
           rdf:resource="http://purl.org/dc/dcmitype/StillImage" /><dc:title></dc:title></cc:Work></rdf:RDF></metadata><defs
     id="defs3056" /><sodipodi:namedview
     pagecolor="#ffffff"
     bordercolor="#666666"
     borderopacity="1"
     objecttolerance="10"
     gridtolerance="10"
     guidetolerance="10"
     inkscape:pageopacity="0"
     inkscape:pageshadow="2"
     inkscape:window-width="1598"
     inkscape:window-height="850"
     id="namedview3054"
     showgrid="false"
     inkscape:zoom="4.2160417"
     inkscape:cx="56.25"
     inkscape:cy="75"
     inkscape:window-x="0"
     inkscape:window-y="25"
     inkscape:window-maximized="1"
     inkscape:current-layer="g3060" /><g
     id="g3060"
     inkscape:groupmode="layer"
     inkscape:label="ink_ext_XXXXXX"
     transform="matrix(1.25,0,0,-1.25,0,150)"><g
       id="g3062"
       transform="scale(0.1,0.1)"><path
         d="M 0,1200 0,396.973 449.988,0 900,396.973 900,1200 0,1200"
         style="fill:#100f0d;fill-opacity:1;fill-rule:nonzero;stroke:none"
         id="path3064" /><path
         d="m 792.859,1040 0,-480 c 0,-15.703 -5.586,-29.16 -16.773,-40.352 -11.191,-11.191 -24.648,-16.796 -40.371,-16.796 l -571.43,0 c -15.699,0 -29.156,5.605 -40.347,16.796 -11.196,11.192 -16.797,24.649 -16.797,40.352 l 0,480 c 0,15.72 5.601,29.18 16.797,40.37 11.191,11.19 24.648,16.78 40.347,16.78 l 571.43,0 c 15.723,0 29.18,-5.59 40.371,-16.78 11.187,-11.19 16.773,-24.65 16.773,-40.37 z m -45.703,-57.129 0,45.699 c 0,6.2 -2.261,11.55 -6.797,16.08 -4.507,4.51 -9.879,6.78 -16.05,6.8 l -45.723,0 c -6.191,0 -11.543,-2.27 -16.059,-6.8 -4.531,-4.53 -6.797,-9.88 -6.797,-16.08 l 0,-45.699 c 0,-6.191 2.266,-11.562 6.797,-16.074 4.516,-4.512 9.883,-6.777 16.059,-6.797 l 45.723,0 c 6.187,0 11.543,2.266 16.05,6.797 4.536,4.531 6.797,9.883 6.797,16.074 z m 0,-137.148 0,45.722 c 0,6.192 -2.261,11.543 -6.797,16.055 -4.507,4.531 -9.879,6.797 -16.05,6.797 l -45.723,0 c -6.191,0 -11.543,-2.266 -16.059,-6.797 -4.531,-4.512 -6.797,-9.883 -6.797,-16.055 l 0,-45.722 c 0,-6.192 2.266,-11.543 6.797,-16.075 4.516,-4.511 9.883,-6.777 16.059,-6.777 l 45.723,0 c 6.187,0 11.543,2.266 16.05,6.777 4.536,4.532 6.797,9.883 6.797,16.075 z m 0,-137.149 0,45.703 c 0,6.211 -2.261,11.563 -6.797,16.075 -4.507,4.531 -9.879,6.796 -16.05,6.796 l -45.723,0 c -6.191,0 -11.543,-2.265 -16.059,-6.796 -4.531,-4.532 -6.797,-9.883 -6.797,-16.075 l 0,-45.703 c 0,-6.191 2.266,-11.543 6.797,-16.074 4.516,-4.512 9.883,-6.777 16.059,-6.777 l 45.723,0 c 6.187,0 11.543,2.265 16.05,6.777 4.536,4.531 6.797,9.883 6.797,16.074 z m -137.129,137.149 0,182.867 c 0,6.2 -2.261,11.55 -6.797,16.06 -4.531,4.53 -9.878,6.8 -16.074,6.8 l -274.297,0 c -6.187,0 -11.543,-2.27 -16.05,-6.8 -4.536,-4.51 -6.797,-9.88 -6.797,-16.06 l 0,-182.867 c 0,-6.192 2.261,-11.543 6.797,-16.075 4.507,-4.511 9.879,-6.777 16.05,-6.777 l 274.297,0 c 6.196,0 11.543,2.266 16.074,6.777 4.512,4.532 6.782,9.883 6.797,16.075 z m 137.129,-274.278 0,45.703 c 0,6.192 -2.261,11.543 -6.797,16.075 -4.507,4.511 -9.879,6.777 -16.05,6.777 l -45.723,0 c -6.191,0 -11.543,-2.266 -16.059,-6.777 -4.531,-4.532 -6.797,-9.883 -6.797,-16.075 l 0,-45.703 c 0,-6.211 2.266,-11.562 6.797,-16.074 4.516,-4.531 9.883,-6.797 16.059,-6.797 l 45.723,0 c 6.187,0 11.543,2.266 16.05,6.797 4.536,4.531 6.797,9.883 6.797,16.074 z m -502.847,411.426 0,45.699 c 0,6.2 -2.27,11.55 -6.797,16.08 -4.532,4.51 -9.883,6.78 -16.074,6.8 l -45.708,0 c -6.191,0 -11.542,-2.27 -16.074,-6.8 -4.511,-4.53 -6.773,-9.88 -6.797,-16.08 l 0,-45.699 c 0,-6.191 2.27,-11.562 6.797,-16.074 4.532,-4.512 9.883,-6.777 16.074,-6.797 l 45.708,0 c 6.191,0 11.558,2.266 16.074,6.797 4.508,4.531 6.773,9.883 6.797,16.074 z m 365.718,-411.426 0,182.852 c 0,6.191 -2.261,11.543 -6.797,16.074 -4.531,4.512 -9.878,6.777 -16.074,6.777 l -274.297,0 c -6.187,0 -11.543,-2.246 -16.05,-6.777 -4.536,-4.531 -6.797,-9.883 -6.797,-16.074 l 0,-182.852 c 0,-6.211 2.261,-11.562 6.797,-16.074 4.507,-4.531 9.879,-6.797 16.05,-6.797 l 274.297,0 c 6.196,0 11.543,2.266 16.074,6.797 4.512,4.531 6.782,9.883 6.797,16.074 z m -365.718,274.278 0,45.722 c 0,6.192 -2.27,11.543 -6.797,16.055 -4.532,4.531 -9.883,6.797 -16.074,6.797 l -45.708,0 c -6.191,0 -11.542,-2.266 -16.074,-6.797 -4.511,-4.512 -6.773,-9.883 -6.797,-16.055 l 0,-45.722 c 0,-6.192 2.27,-11.543 6.797,-16.075 4.532,-4.511 9.883,-6.777 16.074,-6.777 l 45.708,0 c 6.191,0 11.558,2.266 16.074,6.777 4.508,4.532 6.773,9.883 6.797,16.075 z m 0,-137.149 0,45.703 c 0,6.211 -2.27,11.563 -6.797,16.075 -4.532,4.531 -9.883,6.796 -16.074,6.796 l -45.708,0 c -6.191,0 -11.542,-2.265 -16.074,-6.796 -4.511,-4.532 -6.773,-9.883 -6.797,-16.075 l 0,-45.703 c 0,-6.191 2.27,-11.543 6.797,-16.074 4.532,-4.512 9.883,-6.777 16.074,-6.777 l 45.708,0 c 6.191,0 11.558,2.265 16.074,6.777 4.508,4.531 6.773,9.883 6.797,16.074 z m 0,-137.129 0,45.703 c 0,6.192 -2.27,11.543 -6.797,16.075 -4.532,4.511 -9.883,6.777 -16.074,6.777 l -45.708,0 c -6.191,0 -11.542,-2.266 -16.074,-6.777 -4.511,-4.532 -6.773,-9.883 -6.797,-16.075 l 0,-45.703 c 0,-6.211 2.27,-11.562 6.797,-16.074 4.532,-4.531 9.883,-6.797 16.074,-6.797 l 45.708,0 c 6.191,0 11.558,2.266 16.074,6.797 4.508,4.531 6.773,9.883 6.797,16.074"
         style="fill:#ffffff;fill-opacity:1;fill-rule:nonzero;stroke:none"
         id="path3066" /></g></g></svg>