<?xml version="1.0" encoding="UTF-8" standalone="no"?>
<!-- Created with Inkscape (http://www.inkscape.org/) -->

<svg
   xmlns:dc="http://purl.org/dc/elements/1.1/"
   xmlns:cc="http://creativecommons.org/ns#"
   xmlns:rdf="http://www.w3.org/1999/02/22-rdf-syntax-ns#"
   xmlns:svg="http://www.w3.org/2000/svg"
   xmlns="http://www.w3.org/2000/svg"
   xmlns:sodipodi="http://sodipodi.sourceforge.net/DTD/sodipodi-0.dtd"
   xmlns:inkscape="http://www.inkscape.org/namespaces/inkscape"
   id="svg3004"
   version="1.1"
   inkscape:version="0.48.4 r9939"
   width="112.5"
   height="150"
   xml:space="preserve"
   sodipodi:docname="mapicon_image.svg"><metadata
     id="metadata3010"><rdf:RDF><cc:Work
         rdf:about=""><dc:format>image/svg+xml</dc:format><dc:type
           rdf:resource="http://purl.org/dc/dcmitype/StillImage" /><dc:title /></cc:Work></rdf:RDF></metadata><defs
     id="defs3008" /><sodipodi:namedview
     pagecolor="#ffffff"
     bordercolor="#666666"
     borderopacity="1"
     objecttolerance="10"
     gridtolerance="10"
     guidetolerance="10"
     inkscape:pageopacity="0"
     inkscape:pageshadow="2"
     inkscape:window-width="1598"
     inkscape:window-height="850"
     id="namedview3006"
     showgrid="false"
     inkscape:zoom="4.206512"
     inkscape:cx="11.786912"
     inkscape:cy="75"
     inkscape:window-x="0"
     inkscape:window-y="25"
     inkscape:window-maximized="1"
     inkscape:current-layer="g3012" /><g
     inkscape:groupmode="layer"
     id="layer1"
     inkscape:label="Pin"
     style="display:inline"><path
       inkscape:connector-curvature="0"
       id="path3016"
       style="fill:#008080;fill-opacity:1;fill-rule:nonzero;stroke:none"
       d="m -1.5e-6,0 0,100.37838 L 56.249501,150 112.5,100.37838 112.5,0 -1.5e-6,0" /></g><g
     id="g3012"
     inkscape:groupmode="layer"
     inkscape:label="PicturePin"
     transform="matrix(1.25,0,0,-1.25,0,150)"><path
       style="opacity:0.2;fill:#ffffff;fill-opacity:1;fill-rule:nonzero;stroke:none"
       d="m 79.2859,101.714 0,-43.4281 c 0,-1.5718 -0.5586,-2.9175 -1.6773,-4.0371 -1.1203,-1.1187 -2.4648,-1.6773 -4.0371,-1.6773 l -57.143,0 c -1.5711,0 -2.9168,0.5586 -4.0359,1.6773 -1.1192,1.1196 -1.6785,2.4653 -1.6785,4.0371 l 0,43.4281 c 0,1.572 0.5593,2.918 1.6785,4.037 1.1191,1.119 2.4648,1.678 4.0359,1.678 l 57.143,0 c 1.5723,0 2.9168,-0.559 4.0371,-1.678 1.1187,-1.119 1.6773,-2.465 1.6773,-4.037 z"
       id="path3021"
       inkscape:connector-curvature="0" /><path
       id="frame"
       style="fill:#ffffff;fill-opacity:1;fill-rule:nonzero;stroke:none"
       d="m 73.573,102.859 -57.1433,0 c -0.3086,0 -0.5774,-0.114 -0.8035,-0.34 -0.2278,-0.227 -0.3403,-0.495 -0.3391,-0.805 l 0,-43.4281 c 0,-0.3101 0.1133,-0.5781 0.3391,-0.8046 0.2254,-0.2262 0.4929,-0.3395 0.8035,-0.3395 l 57.1433,0 c 0.3086,0 0.5774,0.1133 0.804,0.3395 0.2265,0.2265 0.3386,0.4945 0.3386,0.8046 l 0,43.4281 c 0,0.31 -0.1133,0.578 -0.3386,0.805 -0.2254,0.226 -0.4942,0.34 -0.804,0.34 z m 5.7129,-1.145 0,-43.4281 c 0,-1.5718 -0.5586,-2.9175 -1.6773,-4.0371 -1.1203,-1.1187 -2.4648,-1.6773 -4.0371,-1.6773 l -57.143,0 c -1.5711,0 -2.9168,0.5586 -4.0359,1.6773 -1.1192,1.1196 -1.6785,2.4653 -1.6785,4.0371 l 0,43.4281 c 0,1.572 0.5593,2.918 1.6785,4.037 1.1191,1.119 2.4648,1.678 4.0359,1.678 l 57.143,0 c 1.5723,0 2.9168,-0.559 4.0371,-1.678 1.1187,-1.119 1.6773,-2.465 1.6773,-4.037 z"
       inkscape:label="frame"
       inkscape:connector-curvature="0"><title
         id="title3019">Frame</title></path><path
       style="fill:#ffffff;fill-opacity:1;fill-rule:nonzero;stroke:none"
       d="m 70.1453,77.7141 0,-16 -50.2859,0 0,6.8574 11.4277,11.4297 5.7149,-5.7153 18.2863,18.2871 14.857,-14.8589 z"
       id="hills"
       inkscape:label="hills"><title
         id="title3015">Hills</title></path><path
       style="fill:#ffffff;fill-opacity:1;fill-rule:nonzero;stroke:none"
       d="m 33.5723,91.4285 c 0,-1.9043 -0.666,-3.523 -2,-4.8555 -1.3328,-1.3335 -2.9512,-2 -4.8567,-2 -1.9051,0 -3.523,0.6665 -4.8562,2 -1.334,1.3325 -2,2.9512 -2,4.8555 0,1.9067 0.666,3.5254 2,4.8574 1.3332,1.334 2.9511,2 4.8562,2 1.9055,0 3.5239,-0.666 4.8567,-2 1.334,-1.332 2,-2.9507 2,-4.8574"
       id="sun"
       inkscape:label="sun"><title
         id="title3017">Sun</title></path></g></svg>