<?xml version="1.0" encoding="UTF-8" standalone="no"?>
<!-- Created with Inkscape (http://www.inkscape.org/) -->

<svg
   xmlns:dc="http://purl.org/dc/elements/1.1/"
   xmlns:cc="http://creativecommons.org/ns#"
   xmlns:rdf="http://www.w3.org/1999/02/22-rdf-syntax-ns#"
   xmlns:svg="http://www.w3.org/2000/svg"
   xmlns="http://www.w3.org/2000/svg"
   xmlns:sodipodi="http://sodipodi.sourceforge.net/DTD/sodipodi-0.dtd"
   xmlns:inkscape="http://www.inkscape.org/namespaces/inkscape"
   id="svg3036"
   version="1.1"
   inkscape:version="0.48.4 r9939"
   width="112.5"
   height="150"
   xml:space="preserve"
   sodipodi:docname="mapicon_text.eps"><metadata
     id="metadata3042"><rdf:RDF><cc:Work
         rdf:about=""><dc:format>image/svg+xml</dc:format><dc:type
           rdf:resource="http://purl.org/dc/dcmitype/StillImage" /><dc:title></dc:title></cc:Work></rdf:RDF></metadata><defs
     id="defs3040" /><sodipodi:namedview
     pagecolor="#ffffff"
     bordercolor="#666666"
     borderopacity="1"
     objecttolerance="10"
     gridtolerance="10"
     guidetolerance="10"
     inkscape:pageopacity="0"
     inkscape:pageshadow="2"
     inkscape:window-width="1598"
     inkscape:window-height="850"
     id="namedview3038"
     showgrid="false"
     inkscape:zoom="4.2160417"
     inkscape:cx="56.25"
     inkscape:cy="75"
     inkscape:window-x="0"
     inkscape:window-y="25"
     inkscape:window-maximized="1"
     inkscape:current-layer="g3044" /><g
     id="g3044"
     inkscape:groupmode="layer"
     inkscape:label="ink_ext_XXXXXX"
     transform="matrix(1.25,0,0,-1.25,0,150)"><g
       id="g3046"
       transform="scale(0.1,0.1)"><path
         d="M 0,1200 0,396.973 449.988,0 900,396.973 900,1200 0,1200"
         style="fill:#100f0d;fill-opacity:1;fill-rule:nonzero;stroke:none"
         id="path3048" /><path
         d="m 720.535,940.898 c 0,-12.617 -4.414,-23.339 -13.222,-32.148 l -59.278,-59.277 -148.57,148.554 59.297,58.943 c 8.551,9.05 19.273,13.56 32.129,13.56 12.617,0 23.457,-4.51 32.5,-13.56 l 83.922,-83.572 c 8.808,-9.296 13.222,-20.117 13.222,-32.5 z M 476.594,975.176 625.168,826.621 328.031,529.473 l -148.574,0 0,148.574 297.137,297.129 z m 19.297,-68.555 c 0,5.234 -2.621,7.852 -7.856,7.852 -2.383,0 -4.414,-0.84 -6.07,-2.5 L 288.383,718.398 c -1.66,-1.66 -2.5,-3.691 -2.5,-6.054 0,-5.254 2.617,-7.871 7.871,-7.871 2.375,0 4.394,0.84 6.066,2.5 l 193.571,193.574 c 1.66,1.66 2.5,3.691 2.5,6.074 z m -186.793,-331.445 32.5,32.5 -83.938,83.945 -32.5,-32.5 0,-38.223 45.723,0 0,-45.703 38.203,0 0.012,-0.019"
         style="fill:#ffffff;fill-opacity:1;fill-rule:nonzero;stroke:none"
         id="path3050" /></g></g></svg>