<?xml version="1.0" encoding="UTF-8" standalone="no"?>
<!-- Generated by IcoMoon.io -->

<svg
   xmlns:dc="http://purl.org/dc/elements/1.1/"
   xmlns:cc="http://creativecommons.org/ns#"
   xmlns:rdf="http://www.w3.org/1999/02/22-rdf-syntax-ns#"
   xmlns:svg="http://www.w3.org/2000/svg"
   xmlns="http://www.w3.org/2000/svg"
   xmlns:sodipodi="http://sodipodi.sourceforge.net/DTD/sodipodi-0.dtd"
   xmlns:inkscape="http://www.inkscape.org/namespaces/inkscape"
   version="1.1"
   viewBox="0 0 64 64"
   id="svg3806"
   inkscape:version="0.48.4 r9939"
   sodipodi:docname="pencil.svg">
  <metadata
     id="metadata3816">
    <rdf:RDF>
      <cc:Work
         rdf:about="">
        <dc:format>image/svg+xml</dc:format>
        <dc:type
           rdf:resource="http://purl.org/dc/dcmitype/StillImage" />
      </cc:Work>
    </rdf:RDF>
  </metadata>
  <defs
     id="defs3814" />
  <sodipodi:namedview
     pagecolor="#ffffff"
     bordercolor="#666666"
     borderopacity="1"
     objecttolerance="10"
     gridtolerance="10"
     guidetolerance="10"
     inkscape:pageopacity="0"
     inkscape:pageshadow="2"
     inkscape:window-width="1598"
     inkscape:window-height="850"
     id="namedview3812"
     showgrid="false"
     inkscape:zoom="9.8813477"
     inkscape:cx="14.593467"
     inkscape:cy="32"
     inkscape:window-x="0"
     inkscape:window-y="25"
     inkscape:window-maximized="1"
     inkscape:current-layer="svg3806" />
  <g
     id="g3808"
     style="fill:#782167;fill-opacity:1" />
  <path
     d="M 4.9465,59.054 V 44.197 L 34.6605,14.483 49.5175,29.34 19.8035,59.054 H 4.9465 z m 4.571,-9.143 h 4.571 v 4.571 h 3.821 l 3.25,-3.25 -8.393,-8.393 -3.25,3.25 v 3.821 z m 6.072,-9.143 q 0,0.786 0.786,0.786 0.357,0 0.607,-0.25 l 19.357,-19.357 q 0.25,-0.25 0.25,-0.607 0,-0.786 -0.786,-0.786 -0.357,0 -0.607,0.25 l -19.357,19.357 q -0.25,0.25 -0.25,0.607 z m 21.357,-28.572 5.929,-5.893 q 1.286,-1.357 3.214,-1.357 1.893,0 3.25,1.357 l 8.393,8.357 q 1.321,1.393 1.321,3.25 0,1.893 -1.321,3.214 l -5.929,5.929 z"
     id="path3810"
     style="fill:#782167;fill-opacity:1"
     inkscape:connector-curvature="0" />
</svg>
