<?xml version="1.0" encoding="utf-8"?>
<!-- Generated by IcoMoon.io -->
<!DOCTYPE svg PUBLIC "-//W3C//DTD SVG 1.1//EN" "http://www.w3.org/Graphics/SVG/1.1/DTD/svg11.dtd">
<svg version="1.1" xmlns="http://www.w3.org/2000/svg" xmlns:xlink="http://www.w3.org/1999/xlink" width="64" height="64" viewBox="0 0 64 64">
<g>
</g>
	<path d="M0 59.429v-14.857l29.714-29.714 14.857 14.857-29.714 29.714h-14.857zM4.571 50.286h4.571v4.571h3.821l3.25-3.25-8.393-8.393-3.25 3.25v3.821zM10.643 41.143q0 0.786 0.786 0.786 0.357 0 0.607-0.25l19.357-19.357q0.25-0.25 0.25-0.607 0-0.786-0.786-0.786-0.357 0-0.607 0.25l-19.357 19.357q-0.25 0.25-0.25 0.607zM32 12.571l5.929-5.893q1.286-1.357 3.214-1.357 1.893 0 3.25 1.357l8.393 8.357q1.321 1.393 1.321 3.25 0 1.893-1.321 3.214l-5.929 5.929z" fill="#ffffff"></path>
</svg>
