<?xml version="1.0" encoding="utf-8"?>
<!-- Generated by IcoMoon.io -->
<!DOCTYPE svg PUBLIC "-//W3C//DTD SVG 1.1//EN" "http://www.w3.org/Graphics/SVG/1.1/DTD/svg11.dtd">
<svg version="1.1" xmlns="http://www.w3.org/2000/svg" xmlns:xlink="http://www.w3.org/1999/xlink" width="69" height="64" viewBox="0 0 69 64">
<g>
</g>
	<path d="M0 53.714v-43.429q0-2.357 1.679-4.036t4.036-1.679h57.143q2.357 0 4.036 1.679t1.679 4.036v43.429q0 2.357-1.679 4.036t-4.036 1.679h-57.143q-2.357 0-4.036-1.679t-1.679-4.036zM4.571 53.714q0 0.464 0.339 0.804t0.804 0.339h57.143q0.464 0 0.804-0.339t0.339-0.804v-43.429q0-0.464-0.339-0.804t-0.804-0.339h-57.143q-0.464 0-0.804 0.339t-0.339 0.804v43.429zM9.143 50.286v-6.857l11.429-11.429 5.714 5.714 18.286-18.286 14.857 14.857v16h-50.286zM9.143 20.571q0-2.857 2-4.857t4.857-2 4.857 2 2 4.857-2 4.857-4.857 2-4.857-2-2-4.857z" fill="#ffffff"></path>
</svg>
