<?xml version="1.0" encoding="UTF-8" standalone="no"?>
<!-- Generated by IcoMoon.io -->

<svg
   xmlns:dc="http://purl.org/dc/elements/1.1/"
   xmlns:cc="http://creativecommons.org/ns#"
   xmlns:rdf="http://www.w3.org/1999/02/22-rdf-syntax-ns#"
   xmlns:svg="http://www.w3.org/2000/svg"
   xmlns="http://www.w3.org/2000/svg"
   xmlns:sodipodi="http://sodipodi.sourceforge.net/DTD/sodipodi-0.dtd"
   xmlns:inkscape="http://www.inkscape.org/namespaces/inkscape"
   version="1.1"
   width="69"
   height="64"
   viewBox="0 0 69 64"
   id="svg2"
   inkscape:version="0.48.4 r9939"
   sodipodi:docname="picture.svg">
  <metadata
     id="metadata12">
    <rdf:RDF>
      <cc:Work
         rdf:about="">
        <dc:format>image/svg+xml</dc:format>
        <dc:type
           rdf:resource="http://purl.org/dc/dcmitype/StillImage" />
      </cc:Work>
    </rdf:RDF>
  </metadata>
  <defs
     id="defs10" />
  <sodipodi:namedview
     pagecolor="#ffffff"
     bordercolor="#666666"
     borderopacity="1"
     objecttolerance="10"
     gridtolerance="10"
     guidetolerance="10"
     inkscape:pageopacity="0"
     inkscape:pageshadow="2"
     inkscape:window-width="1598"
     inkscape:window-height="850"
     id="namedview8"
     showgrid="false"
     inkscape:zoom="9.8813477"
     inkscape:cx="17.194668"
     inkscape:cy="32"
     inkscape:window-x="0"
     inkscape:window-y="25"
     inkscape:window-maximized="1"
     inkscape:current-layer="svg2" />
  <g
     id="g4"
     style="fill:#008080;fill-opacity:1" />
  <path
     d="M22.857 20.571q0 2.857-2 4.857t-4.857 2-4.857-2-2-4.857 2-4.857 4.857-2 4.857 2 2 4.857zM59.429 34.286v16h-50.286v-6.857l11.429-11.429 5.714 5.714 18.286-18.286zM62.857 9.143h-57.143q-0.464 0-0.804 0.339t-0.339 0.804v43.429q0 0.464 0.339 0.804t0.804 0.339h57.143q0.464 0 0.804-0.339t0.339-0.804v-43.429q0-0.464-0.339-0.804t-0.804-0.339zM68.571 10.286v43.429q0 2.357-1.679 4.036t-4.036 1.679h-57.143q-2.357 0-4.036-1.679t-1.679-4.036v-43.429q0-2.357 1.679-4.036t4.036-1.679h57.143q2.357 0 4.036 1.679t1.679 4.036z"
     fill="#ffffff"
     id="path6"
     style="fill:#008080;fill-opacity:1" />
</svg>
