<?xml version="1.0" encoding="utf-8"?>
<!-- Generated by IcoMoon.io -->
<!DOCTYPE svg PUBLIC "-//W3C//DTD SVG 1.1//EN" "http://www.w3.org/Graphics/SVG/1.1/DTD/svg11.dtd">
<svg version="1.1" xmlns="http://www.w3.org/2000/svg" xmlns:xlink="http://www.w3.org/1999/xlink" width="64" height="64" viewBox="0 0 64 64">
<g>
</g>
	<path d="M0 54.857v-16q0-0.929 0.679-1.607t1.607-0.679h16q0.929 0 1.607 0.679t0.679 1.607-0.679 1.607l-4.893 4.893q2.536 2.357 5.75 3.643t6.679 1.286q4.786 0 8.929-2.321t6.643-6.393q0.393-0.607 1.893-4.179 0.286-0.821 1.071-0.821h6.857q0.464 0 0.804 0.339t0.339 0.804q0 0.179-0.036 0.25-2.286 9.571-9.571 15.518t-17.071 5.946q-5.214 0-10.089-1.964t-8.696-5.607l-4.607 4.607q-0.679 0.679-1.607 0.679t-1.607-0.679-0.679-1.607zM0.643 26.286v-0.25q2.321-9.571 9.643-15.518t17.143-5.946q5.214 0 10.143 1.982t8.75 5.589l4.643-4.607q0.679-0.679 1.607-0.679t1.607 0.679 0.679 1.607v16q0 0.929-0.679 1.607t-1.607 0.679h-16q-0.929 0-1.607-0.679t-0.679-1.607 0.679-1.607l4.929-4.929q-5.286-4.893-12.464-4.893-4.786 0-8.929 2.321t-6.643 6.393q-0.393 0.607-1.893 4.179-0.286 0.821-1.071 0.821h-7.107q-0.464 0-0.804-0.339t-0.339-0.804z" fill="#ffffff"></path>
</svg>
