<?xml version="1.0" encoding="utf-8"?>
<!-- Generated by IcoMoon.io -->
<!DOCTYPE svg PUBLIC "-//W3C//DTD SVG 1.1//EN" "http://www.w3.org/Graphics/SVG/1.1/DTD/svg11.dtd">
<svg version="1.1" xmlns="http://www.w3.org/2000/svg" xmlns:xlink="http://www.w3.org/1999/xlink" width="64" height="64" viewBox="0 0 64 64">
<g>
</g>
	<path d="M0 32q0-4.75 3.339-8.089t8.089-3.339q4.5 0 7.786 3.071l12.857-6.429q-0.071-0.786-0.071-1.214 0-4.75 3.339-8.089t8.089-3.339 8.089 3.339 3.339 8.089-3.339 8.089-8.089 3.339q-4.5 0-7.786-3.071l-12.857 6.429q0.071 0.786 0.071 1.214t-0.071 1.214l12.857 6.429q3.286-3.071 7.786-3.071 4.75 0 8.089 3.339t3.339 8.089-3.339 8.089-8.089 3.339-8.089-3.339-3.339-8.089q0-0.429 0.071-1.214l-12.857-6.429q-3.286 3.071-7.786 3.071-4.75 0-8.089-3.339t-3.339-8.089z" fill="#ffffff"></path>
</svg>
