<?xml version="1.0" encoding="utf-8"?>
<!-- Generated by IcoMoon.io -->
<!DOCTYPE svg PUBLIC "-//W3C//DTD SVG 1.1//EN" "http://www.w3.org/Graphics/SVG/1.1/DTD/svg11.dtd">
<svg version="1.1" xmlns="http://www.w3.org/2000/svg" xmlns:xlink="http://www.w3.org/1999/xlink" width="59" height="64" viewBox="0 0 59 64">
<g>
</g>
	<path d="M22.857 51.429q0 0.143 0.036 0.714t0.018 0.946-0.107 0.839-0.357 0.696-0.732 0.232h-11.429q-4.25 0-7.268-3.018t-3.018-7.268v-25.143q0-4.25 3.018-7.268t7.268-3.018h11.429q0.464 0 0.804 0.339t0.339 0.804q0 0.143 0.036 0.714t0.018 0.946-0.107 0.839-0.357 0.696-0.732 0.232h-11.429q-2.357 0-4.036 1.679t-1.679 4.036v25.143q0 2.357 1.679 4.036t4.036 1.679h11.143t0.411 0.036 0.411 0.107 0.286 0.196 0.25 0.321 0.071 0.482zM56 32q0 0.929-0.679 1.607l-19.429 19.429q-0.679 0.679-1.607 0.679t-1.607-0.679-0.679-1.607v-10.286h-16q-0.929 0-1.607-0.679t-0.679-1.607v-13.714q0-0.929 0.679-1.607t1.607-0.679h16v-10.286q0-0.929 0.679-1.607t1.607-0.679 1.607 0.679l19.429 19.429q0.679 0.679 0.679 1.607z" fill="#ffffff"></path>
</svg>
