<?xml version="1.0" encoding="utf-8"?>
<!-- Generated by IcoMoon.io -->
<!DOCTYPE svg PUBLIC "-//W3C//DTD SVG 1.1//EN" "http://www.w3.org/Graphics/SVG/1.1/DTD/svg11.dtd">
<svg version="1.1" xmlns="http://www.w3.org/2000/svg" xmlns:xlink="http://www.w3.org/1999/xlink" width="41" height="64" viewBox="0 0 41 64">
<g>
</g>
	<path d="M17.143 30.857v-16q0-0.5-0.321-0.821t-0.821-0.321-0.821 0.321-0.321 0.821v16q0 0.5 0.321 0.821t0.821 0.321 0.821-0.321 0.321-0.821zM41.143 43.429q0 0.929-0.679 1.607t-1.607 0.679h-15.321l-1.821 17.25q-0.071 0.429-0.375 0.732t-0.732 0.304h-0.036q-0.964 0-1.143-0.964l-2.714-17.321h-14.429q-0.929 0-1.607-0.679t-0.679-1.607q0-4.393 2.804-7.911t6.339-3.518v-18.286q-1.857 0-3.214-1.357t-1.357-3.214 1.357-3.214 3.214-1.357h22.857q1.857 0 3.214 1.357t1.357 3.214-1.357 3.214-3.214 1.357v18.286q3.536 0 6.339 3.518t2.804 7.911z" fill="#ffffff"></path>
</svg>
