<?xml version="1.0" encoding="utf-8"?>
<!-- Generated by IcoMoon.io -->
<!DOCTYPE svg PUBLIC "-//W3C//DTD SVG 1.1//EN" "http://www.w3.org/Graphics/SVG/1.1/DTD/svg11.dtd">
<svg version="1.1" xmlns="http://www.w3.org/2000/svg" xmlns:xlink="http://www.w3.org/1999/xlink" width="50" height="64" viewBox="0 0 50 64">
<g>
</g>
	<path d="M3.929 47.214q0-1.429 1-2.429l10.5-10.5-10.5-10.5q-1-1-1-2.429t1-2.429l4.857-4.857q1-1 2.429-1t2.429 1l10.5 10.5 10.5-10.5q1-1 2.429-1t2.429 1l4.857 4.857q1 1 1 2.429t-1 2.429l-10.5 10.5 10.5 10.5q1 1 1 2.429t-1 2.429l-4.857 4.857q-1 1-2.429 1t-2.429-1l-10.5-10.5-10.5 10.5q-1 1-2.429 1t-2.429-1l-4.857-4.857q-1-1-1-2.429z" fill="#ffffff"></path>
</svg>
