<?xml version="1.0" encoding="utf-8"?>
<!-- Generated by IcoMoon.io -->
<!DOCTYPE svg PUBLIC "-//W3C//DTD SVG 1.1//EN" "http://www.w3.org/Graphics/SVG/1.1/DTD/svg11.dtd">
<svg version="1.1" xmlns="http://www.w3.org/2000/svg" xmlns:xlink="http://www.w3.org/1999/xlink" width="64" height="64" viewBox="0 0 64 64">
<g>
</g>
	<path d="M0 49.143v-34.286q0-4.25 3.018-7.268t7.268-3.018h34.286q4.25 0 7.268 3.018t3.018 7.268v34.286q0 4.25-3.018 7.268t-7.268 3.018h-6.857v-21.714h7.25l1.071-8h-8.321v-5.107q0-1.929 1-2.964t3.429-1.036l4.714-0.036v-7.393q-3.429-0.321-6.429-0.321-4.857 0-7.786 2.875t-2.929 8.054v5.929h-8v8h8v21.714h-19.429q-4.25 0-7.268-3.018t-3.018-7.268z" fill="#ffffff"></path>
</svg>
