<?xml version="1.0" encoding="UTF-8" standalone="no"?>
<!-- Created with Inkscape (http://www.inkscape.org/) -->

<svg
   xmlns:dc="http://purl.org/dc/elements/1.1/"
   xmlns:cc="http://creativecommons.org/ns#"
   xmlns:rdf="http://www.w3.org/1999/02/22-rdf-syntax-ns#"
   xmlns:svg="http://www.w3.org/2000/svg"
   xmlns="http://www.w3.org/2000/svg"
   xmlns:sodipodi="http://sodipodi.sourceforge.net/DTD/sodipodi-0.dtd"
   xmlns:inkscape="http://www.inkscape.org/namespaces/inkscape"
   id="svg3020"
   version="1.1"
   inkscape:version="0.48.4 r9939"
   width="112.5"
   height="150"
   xml:space="preserve"
   sodipodi:docname="mapicon_link.svg"><metadata
     id="metadata3026"><rdf:RDF><cc:Work
         rdf:about=""><dc:format>image/svg+xml</dc:format><dc:type
           rdf:resource="http://purl.org/dc/dcmitype/StillImage" /><dc:title /></cc:Work></rdf:RDF></metadata><defs
     id="defs3024" /><sodipodi:namedview
     pagecolor="#ffffff"
     bordercolor="#666666"
     borderopacity="1"
     objecttolerance="10"
     gridtolerance="10"
     guidetolerance="10"
     inkscape:pageopacity="0"
     inkscape:pageshadow="2"
     inkscape:window-width="1598"
     inkscape:window-height="850"
     id="namedview3022"
     showgrid="false"
     inkscape:zoom="1.9971655"
     inkscape:cx="45.141519"
     inkscape:cy="75"
     inkscape:window-x="0"
     inkscape:window-y="25"
     inkscape:window-maximized="1"
     inkscape:current-layer="layer1" /><g
     inkscape:groupmode="layer"
     id="layer1"
     inkscape:label="Pin"><path
       inkscape:connector-curvature="0"
       id="path3032"
       style="fill:#008033;fill-opacity:1;fill-rule:nonzero;stroke:none"
       d="M 0,0 0,100.37838 56.2495,150 112.5,100.37838 112.5,0 0,0" /></g><g
     id="g3028"
     inkscape:groupmode="layer"
     inkscape:label="Link"
     transform="matrix(1.25,0,0,-1.25,0,150)"><path
       inkscape:connector-curvature="0"
       id="path3034"
       style="fill:#ffffff;fill-opacity:1;fill-rule:nonzero;stroke:none"
       d="m 74.1438,66.2859 c 0,-2.8574 -1.0122,-5.2754 -3.0364,-7.25 l -5.25,-5.2144 c -1.9758,-1.977 -4.3926,-2.9652 -7.25,-2.9652 -2.8801,0 -5.3094,1.0136 -7.2859,3.0375 l -7.3567,7.3921 c -1.9761,1.977 -2.9644,4.3926 -2.9644,7.25 0,2.9297 1.048,5.4161 3.1434,7.4653 l -3.1434,3.1426 c -2.0473,-2.0958 -4.5234,-3.1426 -7.4285,-3.1426 -2.8574,0 -5.2864,1 -7.2864,3 l -7.4292,7.4273 c -2,2 -3,4.4301 -3,7.2871 0,2.8574 1.0125,5.2739 3.0363,7.2504 l 5.25,5.213 c 1.9762,1.976 4.3926,2.965 7.25,2.965 2.8808,0 5.3094,-1.012 7.2859,-3.038 l 7.357,-7.3919 c 1.9762,-1.9746 2.9633,-4.3926 2.9633,-7.25 0,-2.9282 -1.0468,-5.4161 -3.1425,-7.4629 l 3.1425,-3.1449 c 2.0481,2.0957 4.5246,3.1449 7.4297,3.1449 2.8574,0 5.2863,-1 7.2863,-3 l 7.429,-7.4297 c 2,-2 3,-4.4277 3,-7.2856 z M 42.1797,91.4641 c 0,0.9531 -0.3336,1.7632 -1,2.4297 l -7.357,7.3922 c -0.6668,0.666 -1.4766,1 -2.4289,1 -0.929,0 -1.7383,-0.32 -2.429,-0.963 l -5.25,-5.2144 c -0.6668,-0.666 -1,-1.4648 -1,-2.393 0,-0.9527 0.3332,-1.7636 1,-2.4297 l 7.429,-7.4296 c 0.6421,-0.6422 1.4523,-0.9625 2.4289,-0.9625 1,0 1.857,0.3691 2.5711,1.1074 -0.0715,0.0703 -0.2977,0.291 -0.679,0.6597 -0.3812,0.3696 -0.6378,0.625 -0.7679,0.7676 -0.1309,0.143 -0.3098,0.3695 -0.5364,0.6801 -0.2265,0.3102 -0.3812,0.6133 -0.4636,0.9102 -0.0832,0.2988 -0.1246,0.625 -0.125,0.9824 0,0.9527 0.3328,1.7633 1,2.4297 0.6664,0.666 1.4761,1 2.4285,1 0.3574,0 0.6848,-0.0414 0.982,-0.125 0.2973,-0.084 0.6012,-0.2383 0.9114,-0.4653 0.3097,-0.2246 0.5363,-0.4043 0.6789,-0.5347 0.1425,-0.1313 0.3984,-0.3871 0.7679,-0.7676 0.3696,-0.3813 0.5895,-0.6074 0.661,-0.6797 0.7859,0.7383 1.1793,1.607 1.1793,2.607 L 42.1797,91.4641 z M 67.2859,66.2859 c 0,0.9512 -0.3328,1.7621 -1,2.4282 l -7.4285,7.4297 c -0.6672,0.666 -1.4758,1 -2.4289,1 -1,0 -1.857,-0.3809 -2.5711,-1.1426 0.0711,-0.0727 0.2981,-0.2934 0.6785,-0.6621 0.3821,-0.3696 0.6379,-0.625 0.7688,-0.7676 0.1301,-0.143 0.3098,-0.3695 0.5359,-0.6797 0.227,-0.309 0.3813,-0.6137 0.4641,-0.9105 0.0832,-0.2965 0.1238,-0.625 0.125,-0.9825 0,-0.9527 -0.3328,-1.7617 -1,-2.4273 -0.6668,-0.6684 -1.4766,-1 -2.4285,-1 -0.3574,0 -0.686,0.0406 -0.9824,0.125 -0.2969,0.0816 -0.6016,0.2359 -0.9114,0.4629 -0.3094,0.2261 -0.5359,0.4043 -0.6789,0.5371 -0.1426,0.1305 -0.398,0.3863 -0.7676,0.7676 -0.3687,0.3804 -0.5894,0.6074 -0.6621,0.6777 -0.7847,-0.7363 -1.1773,-1.6059 -1.1773,-2.6059 0,-0.9531 0.3316,-1.7632 1,-2.4296 l 7.3562,-7.3922 c 0.6426,-0.6426 1.4524,-0.9653 2.4286,-0.9653 0.9535,0 1.7628,0.311 2.4296,0.9297 l 5.25,5.2133 c 0.6661,0.668 1,1.4645 1,2.3941 l 0,0" /></g></svg>