<?xml version="1.0" encoding="UTF-8" standalone="no"?>
<!-- Created with Inkscape (http://www.inkscape.org/) -->

<svg
   xmlns:dc="http://purl.org/dc/elements/1.1/"
   xmlns:cc="http://creativecommons.org/ns#"
   xmlns:rdf="http://www.w3.org/1999/02/22-rdf-syntax-ns#"
   xmlns:svg="http://www.w3.org/2000/svg"
   xmlns="http://www.w3.org/2000/svg"
   xmlns:sodipodi="http://sodipodi.sourceforge.net/DTD/sodipodi-0.dtd"
   xmlns:inkscape="http://www.inkscape.org/namespaces/inkscape"
   id="svg3036"
   version="1.1"
   inkscape:version="0.48.4 r9939"
   width="112.5"
   height="150"
   xml:space="preserve"
   sodipodi:docname="mapicon_text.svg"><metadata
     id="metadata3042"><rdf:RDF><cc:Work
         rdf:about=""><dc:format>image/svg+xml</dc:format><dc:type
           rdf:resource="http://purl.org/dc/dcmitype/StillImage" /><dc:title /></cc:Work></rdf:RDF></metadata><defs
     id="defs3040" /><sodipodi:namedview
     pagecolor="#ffffff"
     bordercolor="#666666"
     borderopacity="1"
     objecttolerance="10"
     gridtolerance="10"
     guidetolerance="10"
     inkscape:pageopacity="0"
     inkscape:pageshadow="2"
     inkscape:window-width="1598"
     inkscape:window-height="850"
     id="namedview3038"
     showgrid="false"
     inkscape:zoom="7.5685592"
     inkscape:cx="-5.0015447"
     inkscape:cy="110.40552"
     inkscape:window-x="0"
     inkscape:window-y="25"
     inkscape:window-maximized="1"
     inkscape:current-layer="g3044" /><g
     inkscape:groupmode="layer"
     id="layer3"
     inkscape:label="Pin"><path
       inkscape:connector-curvature="0"
       id="path3048"
       style="fill:#782167;fill-opacity:1;fill-rule:nonzero;stroke:none"
       d="M 0,0 0,100.37838 56.2485,150 112.5,100.37838 112.5,0 0,0" /></g><g
     id="g3044"
     inkscape:groupmode="layer"
     inkscape:label="Pencil"
     transform="matrix(1.25,0,0,-1.25,0,150)"><path
       style="fill:#ffffff;fill-opacity:1;fill-rule:nonzero;stroke:none"
       d="m 72.0535,94.0898 c 0,-1.2617 -0.4414,-2.3339 -1.3222,-3.2148 l -5.9278,-5.9277 -14.857,14.8554 5.9297,5.8943 c 0.8551,0.905 1.9273,1.356 3.2129,1.356 1.2617,0 2.3457,-0.451 3.25,-1.356 l 8.3922,-8.3572 c 0.8808,-0.9296 1.3222,-2.0117 1.3222,-3.25 z"
       id="path4496" /><path
       id="path3050"
       style="fill:#ffffff;fill-opacity:1;fill-rule:nonzero;stroke:none"
       d="m 30.9098,57.5176 3.25,3.25 -8.3938,8.3945 -3.25,-3.25 0,-3.8223 4.5723,0 0,-4.5703 3.8203,0 0.0012,-0.0019 m 18.6793,33.1445 c 0,0.5234 -0.2621,0.7852 -0.7856,0.7852 -0.2383,0 -0.4414,-0.084 -0.607,-0.25 L 28.8383,71.8398 c -0.166,-0.166 -0.25,-0.3691 -0.25,-0.6054 0,-0.5254 0.2617,-0.7871 0.7871,-0.7871 0.2375,0 0.4394,0.084 0.6066,0.25 l 19.3571,19.3574 c 0.166,0.166 0.25,0.3691 0.25,0.6074 z m -1.9297,6.8555 14.8574,-14.8555 -29.7137,-29.7148 -14.8574,0 0,14.8574 29.7137,29.7129 z" /></g></svg>