<?xml version="1.0" encoding="utf-8"?>
<!-- Generated by IcoMoon.io -->
<!DOCTYPE svg PUBLIC "-//W3C//DTD SVG 1.1//EN" "http://www.w3.org/Graphics/SVG/1.1/DTD/svg11.dtd">
<svg version="1.1" xmlns="http://www.w3.org/2000/svg" xmlns:xlink="http://www.w3.org/1999/xlink" width="56" height="64" viewBox="0 0 56 64">
<g>
</g>
	<path d="M17.714 48q0 2.143-1.518 3.643t-3.625 1.5q-2.143 0-3.643-1.5t-1.5-3.643 1.5-3.643 3.643-1.5q2.107 0 3.625 1.5t1.518 3.643zM33.143 54.857q0 1.893-1.339 3.232t-3.232 1.339-3.232-1.339-1.339-3.232 1.339-3.232 3.232-1.339 3.232 1.339 1.339 3.232zM11.429 32q0 2.357-1.679 4.036t-4.036 1.679-4.036-1.679-1.679-4.036 1.679-4.036 4.036-1.679 4.036 1.679 1.679 4.036zM48.571 48q0 1.643-1.179 2.821t-2.821 1.179-2.821-1.179-1.179-2.821 1.179-2.821 2.821-1.179 2.821 1.179 1.179 2.821zM18.857 16q0 2.607-1.839 4.446t-4.446 1.839-4.446-1.839-1.839-4.446 1.839-4.446 4.446-1.839 4.446 1.839 1.839 4.446zM35.429 9.143q0 2.857-2 4.857t-4.857 2-4.857-2-2-4.857 2-4.857 4.857-2 4.857 2 2 4.857zM54.857 32q0 1.429-1 2.429t-2.429 1-2.429-1-1-2.429 1-2.429 2.429-1 2.429 1 1 2.429zM47.429 16q0 1.179-0.839 2.018t-2.018 0.839-2.018-0.839-0.839-2.018 0.839-2.018 2.018-0.839 2.018 0.839 0.839 2.018z" fill="#ffffff"></path>
</svg>
