<?xml version="1.0" encoding="utf-8"?>
<!-- Generated by IcoMoon.io -->
<!DOCTYPE svg PUBLIC "-//W3C//DTD SVG 1.1//EN" "http://www.w3.org/Graphics/SVG/1.1/DTD/svg11.dtd">
<svg version="1.1" xmlns="http://www.w3.org/2000/svg" xmlns:xlink="http://www.w3.org/1999/xlink" viewBox="0 0 69 64">

	<path d="M0 24v-14.857q0-1.857 1.357-3.214t3.214-1.357h14.857q1.893 0 4.179 0.946t3.643 2.304l25.536 25.5q1.321 1.393 1.321 3.25 0 1.893-1.321 3.214l-17.536 17.571q-1.393 1.321-3.25 1.321-1.893 0-3.214-1.321l-25.536-25.571q-1.357-1.321-2.304-3.607t-0.946-4.179zM6.857 16q0 1.893 1.339 3.232t3.232 1.339 3.232-1.339 1.339-3.232-1.339-3.232-3.232-1.339-3.232 1.339-1.339 3.232zM25.143 4.571h8q1.893 0 4.179 0.946t3.643 2.304l25.536 25.5q1.321 1.393 1.321 3.25 0 1.893-1.321 3.214l-17.536 17.571q-1.393 1.321-3.25 1.321-1.286 0-2.107-0.5t-1.893-1.607l16.786-16.786q1.321-1.321 1.321-3.214 0-1.857-1.321-3.25l-25.536-25.5q-1.357-1.357-3.643-2.304t-4.179-0.946z" fill="#000000"></path>
</svg>
